M48
; DRILL file {KiCad 7.0.9-7.0.9~ubuntu22.04.1} date Sun 26 Nov 2023 13:18:23
; FORMAT={-:-/ absolute / inch / decimal}
; #@! TF.CreationDate,2023-11-26T13:18:23+11:00
; #@! TF.GenerationSoftware,Kicad,Pcbnew,7.0.9-7.0.9~ubuntu22.04.1
; #@! TF.FileFunction,MixedPlating,1,2
FMAT,2
INCH
; #@! TA.AperFunction,Plated,PTH,ComponentDrill
T1C0.0394
; #@! TA.AperFunction,NonPlated,NPTH,ComponentDrill
T2C0.1063
%
G90
G05
T1
X4.204Y-3.4532
X4.204Y-3.5532
X4.2776Y-2.5
X4.2776Y-2.8919
X4.3142Y-4.5915
X4.3776Y-2.5
X4.3776Y-2.8919
X4.378Y-2.6919
X4.3946Y-3.7919
X4.3946Y-4.1919
X4.4142Y-4.5915
X4.4776Y-2.5
X4.4776Y-2.8919
X4.478Y-2.6919
X4.5142Y-4.5915
X4.5446Y-3.7919
X4.5446Y-4.1919
X4.5776Y-2.5
X4.5776Y-2.8919
X4.578Y-2.6919
X4.6142Y-4.5915
X4.6446Y-3.7919
X4.6446Y-4.1919
X4.6776Y-2.5
X4.6776Y-2.8919
X4.678Y-2.6919
X4.7142Y-4.5915
X4.7776Y-2.5
X4.7776Y-2.8919
X4.9301Y-2.6919
X4.9301Y-2.7919
X4.9301Y-2.8919
X4.9301Y-2.9919
X4.9301Y-3.0919
X4.9301Y-3.1919
X4.9301Y-3.2919
X4.9301Y-3.3919
X4.9301Y-3.4919
X4.9301Y-3.5919
X4.9301Y-3.6919
X4.9301Y-3.7919
X4.9301Y-3.8919
X4.9301Y-3.9919
X4.9301Y-4.0919
X4.9301Y-4.1919
X4.9301Y-4.2919
X4.9301Y-4.3919
X4.9301Y-4.4919
X4.9301Y-4.5919
X5.0301Y-2.6919
X5.0301Y-2.7919
X5.0301Y-2.8919
X5.0301Y-2.9919
X5.0301Y-3.0919
X5.0301Y-3.1919
X5.0301Y-3.2919
X5.0301Y-3.3919
X5.0301Y-3.4919
X5.0301Y-3.5919
X5.0301Y-3.6919
X5.0301Y-3.7919
X5.0301Y-3.8919
X5.0301Y-3.9919
X5.0301Y-4.0919
X5.0301Y-4.1919
X5.0301Y-4.2919
X5.0301Y-4.3919
X5.0301Y-4.4919
X5.0301Y-4.5919
T2
X4.0748Y-2.5
X4.0748Y-4.7835
X4.9803Y-2.5
X4.9803Y-4.7835
T0
M30
