%TF.GenerationSoftware,KiCad,Pcbnew,7.0.9-7.0.9~ubuntu22.04.1*%
%TF.CreationDate,2023-11-26T13:18:20+11:00*%
%TF.ProjectId,pi1541,70693135-3431-42e6-9b69-6361645f7063,v03*%
%TF.SameCoordinates,Original*%
%TF.FileFunction,Legend,Bot*%
%TF.FilePolarity,Positive*%
%FSLAX46Y46*%
G04 Gerber Fmt 4.6, Leading zero omitted, Abs format (unit mm)*
G04 Created by KiCad (PCBNEW 7.0.9-7.0.9~ubuntu22.04.1) date 2023-11-26 13:18:20*
%MOMM*%
%LPD*%
G01*
G04 APERTURE LIST*
%ADD10C,0.150000*%
%ADD11C,0.120000*%
G04 APERTURE END LIST*
D10*
X109496388Y-90769961D02*
X109401150Y-90817580D01*
X109401150Y-90817580D02*
X109258293Y-90817580D01*
X109258293Y-90817580D02*
X109115436Y-90769961D01*
X109115436Y-90769961D02*
X109020198Y-90674723D01*
X109020198Y-90674723D02*
X108972579Y-90579485D01*
X108972579Y-90579485D02*
X108924960Y-90389009D01*
X108924960Y-90389009D02*
X108924960Y-90246152D01*
X108924960Y-90246152D02*
X108972579Y-90055676D01*
X108972579Y-90055676D02*
X109020198Y-89960438D01*
X109020198Y-89960438D02*
X109115436Y-89865200D01*
X109115436Y-89865200D02*
X109258293Y-89817580D01*
X109258293Y-89817580D02*
X109353531Y-89817580D01*
X109353531Y-89817580D02*
X109496388Y-89865200D01*
X109496388Y-89865200D02*
X109544007Y-89912819D01*
X109544007Y-89912819D02*
X109544007Y-90246152D01*
X109544007Y-90246152D02*
X109353531Y-90246152D01*
X109972579Y-89817580D02*
X109972579Y-90817580D01*
X109972579Y-90817580D02*
X110544007Y-89817580D01*
X110544007Y-89817580D02*
X110544007Y-90817580D01*
X111020198Y-89817580D02*
X111020198Y-90817580D01*
X111020198Y-90817580D02*
X111258293Y-90817580D01*
X111258293Y-90817580D02*
X111401150Y-90769961D01*
X111401150Y-90769961D02*
X111496388Y-90674723D01*
X111496388Y-90674723D02*
X111544007Y-90579485D01*
X111544007Y-90579485D02*
X111591626Y-90389009D01*
X111591626Y-90389009D02*
X111591626Y-90246152D01*
X111591626Y-90246152D02*
X111544007Y-90055676D01*
X111544007Y-90055676D02*
X111496388Y-89960438D01*
X111496388Y-89960438D02*
X111401150Y-89865200D01*
X111401150Y-89865200D02*
X111258293Y-89817580D01*
X111258293Y-89817580D02*
X111020198Y-89817580D01*
X109423369Y-88302980D02*
X108947179Y-88302980D01*
X108947179Y-88302980D02*
X108899560Y-87826790D01*
X108899560Y-87826790D02*
X108947179Y-87874409D01*
X108947179Y-87874409D02*
X109042417Y-87922028D01*
X109042417Y-87922028D02*
X109280512Y-87922028D01*
X109280512Y-87922028D02*
X109375750Y-87874409D01*
X109375750Y-87874409D02*
X109423369Y-87826790D01*
X109423369Y-87826790D02*
X109470988Y-87731552D01*
X109470988Y-87731552D02*
X109470988Y-87493457D01*
X109470988Y-87493457D02*
X109423369Y-87398219D01*
X109423369Y-87398219D02*
X109375750Y-87350600D01*
X109375750Y-87350600D02*
X109280512Y-87302980D01*
X109280512Y-87302980D02*
X109042417Y-87302980D01*
X109042417Y-87302980D02*
X108947179Y-87350600D01*
X108947179Y-87350600D02*
X108899560Y-87398219D01*
X109756703Y-88302980D02*
X110090036Y-87302980D01*
X110090036Y-87302980D02*
X110423369Y-88302980D01*
D11*
%TO.C,J8*%
X105451600Y-86381200D02*
X108111600Y-86381200D01*
X105451600Y-88981200D02*
X105451600Y-86381200D01*
X105451600Y-88981200D02*
X108111600Y-88981200D01*
X105451600Y-90251200D02*
X105451600Y-91581200D01*
X105451600Y-91581200D02*
X106781600Y-91581200D01*
X108111600Y-88981200D02*
X108111600Y-86381200D01*
%TO.C,J4*%
X108251000Y-117955000D02*
X108251000Y-115295000D01*
X118471000Y-117955000D02*
X108251000Y-117955000D01*
X118471000Y-117955000D02*
X118471000Y-115295000D01*
X119741000Y-117955000D02*
X121071000Y-117955000D01*
X121071000Y-117955000D02*
X121071000Y-116625000D01*
X118471000Y-115295000D02*
X108251000Y-115295000D01*
%TO.C,J2*%
X107320000Y-64830000D02*
X107320000Y-62170000D01*
X120080000Y-64830000D02*
X107320000Y-64830000D01*
X120080000Y-64830000D02*
X120080000Y-62170000D01*
X121350000Y-64830000D02*
X122680000Y-64830000D01*
X122680000Y-64830000D02*
X122680000Y-63500000D01*
X120080000Y-62170000D02*
X107320000Y-62170000D01*
%TO.C,J3*%
X107320000Y-74785000D02*
X107320000Y-72125000D01*
X120080000Y-74785000D02*
X107320000Y-74785000D01*
X120080000Y-74785000D02*
X120080000Y-72125000D01*
X121350000Y-74785000D02*
X122680000Y-74785000D01*
X122680000Y-74785000D02*
X122680000Y-73455000D01*
X120080000Y-72125000D02*
X107320000Y-72125000D01*
%TD*%
M02*
