%TF.GenerationSoftware,KiCad,Pcbnew,7.0.9-7.0.9~ubuntu22.04.1*%
%TF.CreationDate,2023-11-26T13:18:20+11:00*%
%TF.ProjectId,pi1541,70693135-3431-42e6-9b69-6361645f7063,v03*%
%TF.SameCoordinates,Original*%
%TF.FileFunction,Copper,L1,Top*%
%TF.FilePolarity,Positive*%
%FSLAX46Y46*%
G04 Gerber Fmt 4.6, Leading zero omitted, Abs format (unit mm)*
G04 Created by KiCad (PCBNEW 7.0.9-7.0.9~ubuntu22.04.1) date 2023-11-26 13:18:20*
%MOMM*%
%LPD*%
G01*
G04 APERTURE LIST*
%TA.AperFunction,ComponentPad*%
%ADD10R,1.700000X1.700000*%
%TD*%
%TA.AperFunction,ComponentPad*%
%ADD11O,1.700000X1.700000*%
%TD*%
%TA.AperFunction,Conductor*%
%ADD12C,0.400000*%
%TD*%
%TA.AperFunction,Conductor*%
%ADD13C,0.250000*%
%TD*%
G04 APERTURE END LIST*
D10*
%TO.P,J6,1,Pin_1*%
%TO.N,Net-(J1-Pin_7)*%
X111622000Y-106475000D03*
D11*
%TO.P,J6,2,Pin_2*%
%TO.N,Net-(J1-Pin_16)*%
X115432000Y-106475000D03*
%TO.P,J6,3,Pin_3*%
%TO.N,Net-(J1-Pin_13)*%
X117972000Y-106475000D03*
%TD*%
D10*
%TO.P,J1,1,Pin_1*%
%TO.N,Net-(J1-Pin_1)*%
X125225000Y-68375000D03*
D11*
%TO.P,J1,2,Pin_2*%
%TO.N,Net-(J1-Pin_2)*%
X127765000Y-68375000D03*
%TO.P,J1,3,Pin_3*%
%TO.N,Net-(J1-Pin_3)*%
X125225000Y-70915000D03*
%TO.P,J1,4,Pin_4*%
%TO.N,Net-(J1-Pin_4)*%
X127765000Y-70915000D03*
%TO.P,J1,5,Pin_5*%
%TO.N,Net-(J1-Pin_5)*%
X125225000Y-73455000D03*
%TO.P,J1,6,Pin_6*%
%TO.N,unconnected-(J1-Pin_6-Pad6)*%
X127765000Y-73455000D03*
%TO.P,J1,7,Pin_7*%
%TO.N,Net-(J1-Pin_7)*%
X125225000Y-75995000D03*
%TO.P,J1,8,Pin_8*%
%TO.N,unconnected-(J1-Pin_8-Pad8)*%
X127765000Y-75995000D03*
%TO.P,J1,9,Pin_9*%
%TO.N,unconnected-(J1-Pin_9-Pad9)*%
X125225000Y-78535000D03*
%TO.P,J1,10,Pin_10*%
%TO.N,unconnected-(J1-Pin_10-Pad10)*%
X127765000Y-78535000D03*
%TO.P,J1,11,Pin_11*%
%TO.N,Net-(J1-Pin_11)*%
X125225000Y-81075000D03*
%TO.P,J1,12,Pin_12*%
%TO.N,Net-(J1-Pin_12)*%
X127765000Y-81075000D03*
%TO.P,J1,13,Pin_13*%
%TO.N,Net-(J1-Pin_13)*%
X125225000Y-83615000D03*
%TO.P,J1,14,Pin_14*%
%TO.N,unconnected-(J1-Pin_14-Pad14)*%
X127765000Y-83615000D03*
%TO.P,J1,15,Pin_15*%
%TO.N,Net-(J1-Pin_15)*%
X125225000Y-86155000D03*
%TO.P,J1,16,Pin_16*%
%TO.N,Net-(J1-Pin_16)*%
X127765000Y-86155000D03*
%TO.P,J1,17,Pin_17*%
%TO.N,unconnected-(J1-Pin_17-Pad17)*%
X125225000Y-88695000D03*
%TO.P,J1,18,Pin_18*%
%TO.N,unconnected-(J1-Pin_18-Pad18)*%
X127765000Y-88695000D03*
%TO.P,J1,19,Pin_19*%
%TO.N,unconnected-(J1-Pin_19-Pad19)*%
X125225000Y-91235000D03*
%TO.P,J1,20,Pin_20*%
%TO.N,unconnected-(J1-Pin_20-Pad20)*%
X127765000Y-91235000D03*
%TO.P,J1,21,Pin_21*%
%TO.N,unconnected-(J1-Pin_21-Pad21)*%
X125225000Y-93775000D03*
%TO.P,J1,22,Pin_22*%
%TO.N,unconnected-(J1-Pin_22-Pad22)*%
X127765000Y-93775000D03*
%TO.P,J1,23,Pin_23*%
%TO.N,unconnected-(J1-Pin_23-Pad23)*%
X125225000Y-96315000D03*
%TO.P,J1,24,Pin_24*%
%TO.N,unconnected-(J1-Pin_24-Pad24)*%
X127765000Y-96315000D03*
%TO.P,J1,25,Pin_25*%
%TO.N,unconnected-(J1-Pin_25-Pad25)*%
X125225000Y-98855000D03*
%TO.P,J1,26,Pin_26*%
%TO.N,unconnected-(J1-Pin_26-Pad26)*%
X127765000Y-98855000D03*
%TO.P,J1,27,Pin_27*%
%TO.N,Net-(J1-Pin_27)*%
X125225000Y-101395000D03*
%TO.P,J1,28,Pin_28*%
%TO.N,Net-(J1-Pin_28)*%
X127765000Y-101395000D03*
%TO.P,J1,29,Pin_29*%
%TO.N,Net-(J1-Pin_29)*%
X125225000Y-103935000D03*
%TO.P,J1,30,Pin_30*%
%TO.N,unconnected-(J1-Pin_30-Pad30)*%
X127765000Y-103935000D03*
%TO.P,J1,31,Pin_31*%
%TO.N,unconnected-(J1-Pin_31-Pad31)*%
X125225000Y-106475000D03*
%TO.P,J1,32,Pin_32*%
%TO.N,unconnected-(J1-Pin_32-Pad32)*%
X127765000Y-106475000D03*
%TO.P,J1,33,Pin_33*%
%TO.N,unconnected-(J1-Pin_33-Pad33)*%
X125225000Y-109015000D03*
%TO.P,J1,34,Pin_34*%
%TO.N,unconnected-(J1-Pin_34-Pad34)*%
X127765000Y-109015000D03*
%TO.P,J1,35,Pin_35*%
%TO.N,unconnected-(J1-Pin_35-Pad35)*%
X125225000Y-111555000D03*
%TO.P,J1,36,Pin_36*%
%TO.N,unconnected-(J1-Pin_36-Pad36)*%
X127765000Y-111555000D03*
%TO.P,J1,37,Pin_37*%
%TO.N,unconnected-(J1-Pin_37-Pad37)*%
X125225000Y-114095000D03*
%TO.P,J1,38,Pin_38*%
%TO.N,unconnected-(J1-Pin_38-Pad38)*%
X127765000Y-114095000D03*
%TO.P,J1,39,Pin_39*%
%TO.N,GND*%
X125225000Y-116635000D03*
%TO.P,J1,40,Pin_40*%
%TO.N,unconnected-(J1-Pin_40-Pad40)*%
X127765000Y-116635000D03*
%TD*%
D10*
%TO.P,J7,1,Pin_1*%
%TO.N,GND*%
X111200000Y-68375000D03*
D11*
%TO.P,J7,2,Pin_2*%
%TO.N,Net-(J1-Pin_1)*%
X113740000Y-68375000D03*
%TO.P,J7,3,Pin_3*%
%TO.N,Net-(J1-Pin_28)*%
X116280000Y-68375000D03*
%TO.P,J7,4,Pin_4*%
%TO.N,Net-(J1-Pin_27)*%
X118820000Y-68375000D03*
%TD*%
D10*
%TO.P,J5,1,Pin_1*%
%TO.N,Net-(J1-Pin_29)*%
X111622000Y-96315000D03*
D11*
%TO.P,J5,2,Pin_2*%
%TO.N,Net-(J1-Pin_15)*%
X115432000Y-96315000D03*
%TO.P,J5,3,Pin_3*%
%TO.N,GND*%
X117972000Y-96315000D03*
%TD*%
D10*
%TO.P,J8,1,Pin_1*%
%TO.N,GND*%
X106781600Y-90251200D03*
D11*
%TO.P,J8,2,Pin_2*%
%TO.N,Net-(J1-Pin_2)*%
X106781600Y-87711200D03*
%TD*%
D10*
%TO.P,J4,1,Pin_1*%
%TO.N,Net-(J3-Pin_1)*%
X119741000Y-116625000D03*
D11*
%TO.P,J4,2,Pin_2*%
%TO.N,Net-(J3-Pin_2)*%
X117201000Y-116625000D03*
%TO.P,J4,3,Pin_3*%
%TO.N,Net-(J3-Pin_5)*%
X114661000Y-116625000D03*
%TO.P,J4,4,Pin_4*%
%TO.N,Net-(J3-Pin_6)*%
X112121000Y-116625000D03*
%TO.P,J4,5,Pin_5*%
%TO.N,GND*%
X109581000Y-116625000D03*
%TD*%
D10*
%TO.P,J2,1,Pin_1*%
%TO.N,Net-(J1-Pin_5)*%
X121350000Y-63500000D03*
D11*
%TO.P,J2,2,Pin_2*%
%TO.N,Net-(J1-Pin_12)*%
X118810000Y-63500000D03*
%TO.P,J2,3,Pin_3*%
%TO.N,Net-(J1-Pin_1)*%
X116270000Y-63500000D03*
%TO.P,J2,4,Pin_4*%
%TO.N,GND*%
X113730000Y-63500000D03*
%TO.P,J2,5,Pin_5*%
%TO.N,Net-(J1-Pin_11)*%
X111190000Y-63500000D03*
%TO.P,J2,6,Pin_6*%
%TO.N,Net-(J1-Pin_3)*%
X108650000Y-63500000D03*
%TD*%
D10*
%TO.P,J3,1,Pin_1*%
%TO.N,Net-(J3-Pin_1)*%
X121350000Y-73455000D03*
D11*
%TO.P,J3,2,Pin_2*%
%TO.N,Net-(J3-Pin_2)*%
X118810000Y-73455000D03*
%TO.P,J3,3,Pin_3*%
%TO.N,Net-(J1-Pin_4)*%
X116270000Y-73455000D03*
%TO.P,J3,4,Pin_4*%
%TO.N,GND*%
X113730000Y-73455000D03*
%TO.P,J3,5,Pin_5*%
%TO.N,Net-(J3-Pin_5)*%
X111190000Y-73455000D03*
%TO.P,J3,6,Pin_6*%
%TO.N,Net-(J3-Pin_6)*%
X108650000Y-73455000D03*
%TD*%
D12*
%TO.N,Net-(J1-Pin_1)*%
X113740000Y-68375000D02*
X116485000Y-71120000D01*
X126492000Y-71415767D02*
X126492000Y-69642000D01*
X125720967Y-72186800D02*
X126492000Y-71415767D01*
X124180600Y-72186800D02*
X125720967Y-72186800D01*
X126492000Y-69642000D02*
X125225000Y-68375000D01*
X123113800Y-71120000D02*
X124180600Y-72186800D01*
X116485000Y-71120000D02*
X123113800Y-71120000D01*
%TO.N,Net-(J1-Pin_2)*%
X106781600Y-87711200D02*
X106019600Y-86949200D01*
X123266200Y-65125600D02*
X124815600Y-66675000D01*
X126065000Y-66675000D02*
X127765000Y-68375000D01*
X123266200Y-61696600D02*
X123266200Y-65125600D01*
X106680000Y-65584138D02*
X106680000Y-61384542D01*
X107358542Y-60706000D02*
X122275600Y-60706000D01*
X106680000Y-61384542D02*
X107358542Y-60706000D01*
X106019600Y-66244538D02*
X106680000Y-65584138D01*
X124815600Y-66675000D02*
X126065000Y-66675000D01*
X106019600Y-86949200D02*
X106019600Y-66244538D01*
X122275600Y-60706000D02*
X123266200Y-61696600D01*
D13*
%TO.N,Net-(J1-Pin_3)*%
X109296200Y-61442600D02*
X122021600Y-61442600D01*
X122021600Y-61442600D02*
X122682000Y-62103000D01*
X108650000Y-62088800D02*
X109296200Y-61442600D01*
X122682000Y-62103000D02*
X122682000Y-68372000D01*
X122682000Y-68372000D02*
X125225000Y-70915000D01*
X108650000Y-63500000D02*
X108650000Y-62088800D01*
%TO.N,Net-(J1-Pin_7)*%
X111582200Y-92405200D02*
X108915200Y-95072200D01*
X108915200Y-103768200D02*
X111622000Y-106475000D01*
X114808000Y-92405200D02*
X111582200Y-92405200D01*
X122783600Y-78436400D02*
X122783600Y-84429600D01*
X108915200Y-95072200D02*
X108915200Y-103768200D01*
X125225000Y-75995000D02*
X122783600Y-78436400D01*
X111622000Y-106475000D02*
X112141000Y-106475000D01*
X122783600Y-84429600D02*
X114808000Y-92405200D01*
%TO.N,GND*%
X113740000Y-63676600D02*
X113563400Y-63500000D01*
%TO.N,Net-(J1-Pin_13)*%
X110159800Y-95402400D02*
X110159800Y-99413800D01*
X117221000Y-106475000D02*
X117972000Y-106475000D01*
X123901200Y-84938800D02*
X123901200Y-86537800D01*
X123901200Y-86537800D02*
X116611400Y-93827600D01*
X125225000Y-83615000D02*
X123901200Y-84938800D01*
X111734600Y-93827600D02*
X110159800Y-95402400D01*
X116611400Y-93827600D02*
X111734600Y-93827600D01*
X110159800Y-99413800D02*
X117221000Y-106475000D01*
%TO.N,Net-(J1-Pin_15)*%
X115015000Y-96315000D02*
X115432000Y-96315000D01*
X115432000Y-96315000D02*
X125225000Y-86522000D01*
X125225000Y-86522000D02*
X125225000Y-86155000D01*
%TO.N,Net-(J1-Pin_16)*%
X126517400Y-83058000D02*
X125780800Y-82321400D01*
X109626400Y-95299404D02*
X109626400Y-101420400D01*
X125780800Y-82321400D02*
X124536200Y-82321400D01*
X124536200Y-82321400D02*
X123393200Y-83464400D01*
X109626400Y-101420400D02*
X114681000Y-106475000D01*
X123393200Y-85394800D02*
X115467702Y-93320298D01*
X114681000Y-106475000D02*
X115432000Y-106475000D01*
X115467702Y-93320298D02*
X111605506Y-93320298D01*
X123393200Y-83464400D02*
X123393200Y-85394800D01*
X127765000Y-86155000D02*
X126517400Y-84907400D01*
X111605506Y-93320298D02*
X109626400Y-95299404D01*
X126517400Y-84907400D02*
X126517400Y-83058000D01*
%TO.N,Net-(J1-Pin_27)*%
X109397800Y-109016800D02*
X107492800Y-107111800D01*
X106756200Y-66250400D02*
X107423800Y-65582800D01*
X107423800Y-65582800D02*
X117678200Y-65582800D01*
X129413000Y-101066600D02*
X129413000Y-109296200D01*
X125225000Y-101395000D02*
X126518600Y-100101400D01*
X118295288Y-109016800D02*
X109397800Y-109016800D01*
X119539888Y-110261400D02*
X118295288Y-109016800D01*
X117678200Y-65582800D02*
X118820000Y-66724600D01*
X107492800Y-107111800D02*
X107492800Y-94967808D01*
X110413800Y-77516897D02*
X106756200Y-73859297D01*
X107492800Y-94967808D02*
X110413800Y-92046808D01*
X118820000Y-66724600D02*
X118820000Y-68375000D01*
X106756200Y-73859297D02*
X106756200Y-66250400D01*
X110413800Y-92046808D02*
X110413800Y-77516897D01*
X128447800Y-100101400D02*
X129413000Y-101066600D01*
X126518600Y-100101400D02*
X128447800Y-100101400D01*
X128447800Y-110261400D02*
X119539888Y-110261400D01*
X129413000Y-109296200D02*
X128447800Y-110261400D01*
%TO.N,Net-(J1-Pin_28)*%
X121589800Y-107746800D02*
X120987400Y-108349200D01*
X110972600Y-92124404D02*
X110972600Y-77439301D01*
X107206200Y-73672901D02*
X107206200Y-66707600D01*
X128614054Y-107746800D02*
X121589800Y-107746800D01*
X120987400Y-108349200D02*
X111016200Y-108349200D01*
X128940000Y-102570000D02*
X128940000Y-107420854D01*
X108185800Y-94911204D02*
X110972600Y-92124404D01*
X116280000Y-66750000D02*
X116280000Y-68375000D01*
X115747800Y-66217800D02*
X116280000Y-66750000D01*
X108185800Y-105518800D02*
X108185800Y-94911204D01*
X107696000Y-66217800D02*
X115747800Y-66217800D01*
X111016200Y-108349200D02*
X108185800Y-105518800D01*
X107206200Y-66707600D02*
X107696000Y-66217800D01*
X110972600Y-77439301D02*
X107206200Y-73672901D01*
X127765000Y-101395000D02*
X128940000Y-102570000D01*
X128940000Y-107420854D02*
X128614054Y-107746800D01*
%TO.N,Net-(J1-Pin_29)*%
X120095000Y-103935000D02*
X125225000Y-103935000D01*
X112475000Y-96315000D02*
X120095000Y-103935000D01*
X111622000Y-96315000D02*
X112475000Y-96315000D01*
D12*
%TO.N,Net-(J1-Pin_4)*%
X127765000Y-71478600D02*
X127765000Y-70915000D01*
X116270000Y-73455000D02*
X117541800Y-74726800D01*
X128447800Y-74726800D02*
X129133600Y-74041000D01*
X129133600Y-74041000D02*
X129133600Y-72847200D01*
X129133600Y-72847200D02*
X127765000Y-71478600D01*
X117541800Y-74726800D02*
X128447800Y-74726800D01*
%TD*%
M02*
