%TF.GenerationSoftware,KiCad,Pcbnew,7.0.9-7.0.9~ubuntu22.04.1*%
%TF.CreationDate,2023-11-26T13:18:20+11:00*%
%TF.ProjectId,pi1541,70693135-3431-42e6-9b69-6361645f7063,v03*%
%TF.SameCoordinates,Original*%
%TF.FileFunction,Soldermask,Top*%
%TF.FilePolarity,Negative*%
%FSLAX46Y46*%
G04 Gerber Fmt 4.6, Leading zero omitted, Abs format (unit mm)*
G04 Created by KiCad (PCBNEW 7.0.9-7.0.9~ubuntu22.04.1) date 2023-11-26 13:18:20*
%MOMM*%
%LPD*%
G01*
G04 APERTURE LIST*
%ADD10R,1.700000X1.700000*%
%ADD11O,1.700000X1.700000*%
%ADD12C,2.700000*%
G04 APERTURE END LIST*
D10*
%TO.C,J6*%
X111622000Y-106475000D03*
D11*
X115432000Y-106475000D03*
X117972000Y-106475000D03*
%TD*%
D12*
%TO.C,H2*%
X103500000Y-121500000D03*
%TD*%
D10*
%TO.C,J1*%
X125225000Y-68375000D03*
D11*
X127765000Y-68375000D03*
X125225000Y-70915000D03*
X127765000Y-70915000D03*
X125225000Y-73455000D03*
X127765000Y-73455000D03*
X125225000Y-75995000D03*
X127765000Y-75995000D03*
X125225000Y-78535000D03*
X127765000Y-78535000D03*
X125225000Y-81075000D03*
X127765000Y-81075000D03*
X125225000Y-83615000D03*
X127765000Y-83615000D03*
X125225000Y-86155000D03*
X127765000Y-86155000D03*
X125225000Y-88695000D03*
X127765000Y-88695000D03*
X125225000Y-91235000D03*
X127765000Y-91235000D03*
X125225000Y-93775000D03*
X127765000Y-93775000D03*
X125225000Y-96315000D03*
X127765000Y-96315000D03*
X125225000Y-98855000D03*
X127765000Y-98855000D03*
X125225000Y-101395000D03*
X127765000Y-101395000D03*
X125225000Y-103935000D03*
X127765000Y-103935000D03*
X125225000Y-106475000D03*
X127765000Y-106475000D03*
X125225000Y-109015000D03*
X127765000Y-109015000D03*
X125225000Y-111555000D03*
X127765000Y-111555000D03*
X125225000Y-114095000D03*
X127765000Y-114095000D03*
X125225000Y-116635000D03*
X127765000Y-116635000D03*
%TD*%
D12*
%TO.C,H4*%
X126500000Y-121500000D03*
%TD*%
%TO.C,H3*%
X126500000Y-63500000D03*
%TD*%
%TO.C,H1*%
X103500000Y-63500000D03*
%TD*%
D10*
%TO.C,J7*%
X111200000Y-68375000D03*
D11*
X113740000Y-68375000D03*
X116280000Y-68375000D03*
X118820000Y-68375000D03*
%TD*%
D10*
%TO.C,J5*%
X111622000Y-96315000D03*
D11*
X115432000Y-96315000D03*
X117972000Y-96315000D03*
%TD*%
D10*
%TO.C,J8*%
X106781600Y-90251200D03*
D11*
X106781600Y-87711200D03*
%TD*%
D10*
%TO.C,J4*%
X119741000Y-116625000D03*
D11*
X117201000Y-116625000D03*
X114661000Y-116625000D03*
X112121000Y-116625000D03*
X109581000Y-116625000D03*
%TD*%
D10*
%TO.C,J2*%
X121350000Y-63500000D03*
D11*
X118810000Y-63500000D03*
X116270000Y-63500000D03*
X113730000Y-63500000D03*
X111190000Y-63500000D03*
X108650000Y-63500000D03*
%TD*%
D10*
%TO.C,J3*%
X121350000Y-73455000D03*
D11*
X118810000Y-73455000D03*
X116270000Y-73455000D03*
X113730000Y-73455000D03*
X111190000Y-73455000D03*
X108650000Y-73455000D03*
%TD*%
M02*
